<mxfile host="Electron" agent="Mozilla/5.0 (Windows NT 10.0; Win64; x64) AppleWebKit/537.36 (KHTML, like Gecko) draw.io/24.7.8 Chrome/128.0.6613.36 Electron/32.0.1 Safari/537.36" version="24.7.8">
  <diagram name="Page-1" id="7qOaJB9PMsS7-qoNzVWl">
    <mxGraphModel dx="1434" dy="836" grid="1" gridSize="10" guides="1" tooltips="1" connect="1" arrows="1" fold="1" page="1" pageScale="1" pageWidth="850" pageHeight="1100" math="0" shadow="0">
      <root>
        <mxCell id="0" />
        <mxCell id="1" parent="0" />
        <mxCell id="0s136Buh3HI4MueRSp4b-1" value="&lt;div&gt;template &amp;lt;typename T&amp;gt;&lt;/div&gt;Stack&amp;lt;T&amp;gt;" style="swimlane;fontStyle=1;align=center;verticalAlign=top;childLayout=stackLayout;horizontal=1;startSize=40;horizontalStack=0;resizeParent=1;resizeParentMax=0;resizeLast=0;collapsible=1;marginBottom=0;whiteSpace=wrap;html=1;" vertex="1" parent="1">
          <mxGeometry x="120" y="240" width="160" height="144" as="geometry" />
        </mxCell>
        <mxCell id="0s136Buh3HI4MueRSp4b-2" value="Push(value:T)" style="text;strokeColor=none;fillColor=none;align=left;verticalAlign=top;spacingLeft=4;spacingRight=4;overflow=hidden;rotatable=0;points=[[0,0.5],[1,0.5]];portConstraint=eastwest;whiteSpace=wrap;html=1;" vertex="1" parent="0s136Buh3HI4MueRSp4b-1">
          <mxGeometry y="40" width="160" height="26" as="geometry" />
        </mxCell>
        <mxCell id="0s136Buh3HI4MueRSp4b-5" value="Pop()" style="text;strokeColor=none;fillColor=none;align=left;verticalAlign=top;spacingLeft=4;spacingRight=4;overflow=hidden;rotatable=0;points=[[0,0.5],[1,0.5]];portConstraint=eastwest;whiteSpace=wrap;html=1;" vertex="1" parent="0s136Buh3HI4MueRSp4b-1">
          <mxGeometry y="66" width="160" height="26" as="geometry" />
        </mxCell>
        <mxCell id="0s136Buh3HI4MueRSp4b-6" value="GetTop():T" style="text;strokeColor=none;fillColor=none;align=left;verticalAlign=top;spacingLeft=4;spacingRight=4;overflow=hidden;rotatable=0;points=[[0,0.5],[1,0.5]];portConstraint=eastwest;whiteSpace=wrap;html=1;" vertex="1" parent="0s136Buh3HI4MueRSp4b-1">
          <mxGeometry y="92" width="160" height="26" as="geometry" />
        </mxCell>
        <mxCell id="0s136Buh3HI4MueRSp4b-16" value="IsEmpty():bool" style="text;strokeColor=none;fillColor=none;align=left;verticalAlign=top;spacingLeft=4;spacingRight=4;overflow=hidden;rotatable=0;points=[[0,0.5],[1,0.5]];portConstraint=eastwest;whiteSpace=wrap;html=1;" vertex="1" parent="0s136Buh3HI4MueRSp4b-1">
          <mxGeometry y="118" width="160" height="26" as="geometry" />
        </mxCell>
        <mxCell id="0s136Buh3HI4MueRSp4b-7" value="Stack&amp;lt;void*&amp;gt;" style="swimlane;fontStyle=1;align=center;verticalAlign=top;childLayout=stackLayout;horizontal=1;startSize=26;horizontalStack=0;resizeParent=1;resizeParentMax=0;resizeLast=0;collapsible=1;marginBottom=0;whiteSpace=wrap;html=1;" vertex="1" parent="1">
          <mxGeometry x="360" y="240" width="160" height="130" as="geometry" />
        </mxCell>
        <mxCell id="0s136Buh3HI4MueRSp4b-28" value="Push(value: void*)" style="text;strokeColor=none;fillColor=none;align=left;verticalAlign=top;spacingLeft=4;spacingRight=4;overflow=hidden;rotatable=0;points=[[0,0.5],[1,0.5]];portConstraint=eastwest;whiteSpace=wrap;html=1;" vertex="1" parent="0s136Buh3HI4MueRSp4b-7">
          <mxGeometry y="26" width="160" height="26" as="geometry" />
        </mxCell>
        <mxCell id="0s136Buh3HI4MueRSp4b-26" value="Pop()" style="text;strokeColor=none;fillColor=none;align=left;verticalAlign=top;spacingLeft=4;spacingRight=4;overflow=hidden;rotatable=0;points=[[0,0.5],[1,0.5]];portConstraint=eastwest;whiteSpace=wrap;html=1;" vertex="1" parent="0s136Buh3HI4MueRSp4b-7">
          <mxGeometry y="52" width="160" height="26" as="geometry" />
        </mxCell>
        <mxCell id="0s136Buh3HI4MueRSp4b-27" value="GetTop():void*" style="text;strokeColor=none;fillColor=none;align=left;verticalAlign=top;spacingLeft=4;spacingRight=4;overflow=hidden;rotatable=0;points=[[0,0.5],[1,0.5]];portConstraint=eastwest;whiteSpace=wrap;html=1;" vertex="1" parent="0s136Buh3HI4MueRSp4b-7">
          <mxGeometry y="78" width="160" height="26" as="geometry" />
        </mxCell>
        <mxCell id="0s136Buh3HI4MueRSp4b-10" value="IsEmpty():bool" style="text;strokeColor=none;fillColor=none;align=left;verticalAlign=top;spacingLeft=4;spacingRight=4;overflow=hidden;rotatable=0;points=[[0,0.5],[1,0.5]];portConstraint=eastwest;whiteSpace=wrap;html=1;" vertex="1" parent="0s136Buh3HI4MueRSp4b-7">
          <mxGeometry y="104" width="160" height="26" as="geometry" />
        </mxCell>
        <mxCell id="0s136Buh3HI4MueRSp4b-11" value="&lt;div&gt;template &amp;lt;typename T&amp;gt;&lt;/div&gt;Stack&amp;lt;T*&amp;gt;" style="swimlane;fontStyle=1;align=center;verticalAlign=top;childLayout=stackLayout;horizontal=1;startSize=40;horizontalStack=0;resizeParent=1;resizeParentMax=0;resizeLast=0;collapsible=1;marginBottom=0;whiteSpace=wrap;html=1;" vertex="1" parent="1">
          <mxGeometry x="360" y="460" width="160" height="144" as="geometry" />
        </mxCell>
        <mxCell id="0s136Buh3HI4MueRSp4b-12" value="Push(value: T*)" style="text;strokeColor=none;fillColor=none;align=left;verticalAlign=top;spacingLeft=4;spacingRight=4;overflow=hidden;rotatable=0;points=[[0,0.5],[1,0.5]];portConstraint=eastwest;whiteSpace=wrap;html=1;" vertex="1" parent="0s136Buh3HI4MueRSp4b-11">
          <mxGeometry y="40" width="160" height="26" as="geometry" />
        </mxCell>
        <mxCell id="0s136Buh3HI4MueRSp4b-13" value="Pop()" style="text;strokeColor=none;fillColor=none;align=left;verticalAlign=top;spacingLeft=4;spacingRight=4;overflow=hidden;rotatable=0;points=[[0,0.5],[1,0.5]];portConstraint=eastwest;whiteSpace=wrap;html=1;" vertex="1" parent="0s136Buh3HI4MueRSp4b-11">
          <mxGeometry y="66" width="160" height="26" as="geometry" />
        </mxCell>
        <mxCell id="0s136Buh3HI4MueRSp4b-29" value="GetTop(): T*" style="text;strokeColor=none;fillColor=none;align=left;verticalAlign=top;spacingLeft=4;spacingRight=4;overflow=hidden;rotatable=0;points=[[0,0.5],[1,0.5]];portConstraint=eastwest;whiteSpace=wrap;html=1;" vertex="1" parent="0s136Buh3HI4MueRSp4b-11">
          <mxGeometry y="92" width="160" height="26" as="geometry" />
        </mxCell>
        <mxCell id="0s136Buh3HI4MueRSp4b-14" value="IsEmpty(): bool" style="text;strokeColor=none;fillColor=none;align=left;verticalAlign=top;spacingLeft=4;spacingRight=4;overflow=hidden;rotatable=0;points=[[0,0.5],[1,0.5]];portConstraint=eastwest;whiteSpace=wrap;html=1;" vertex="1" parent="0s136Buh3HI4MueRSp4b-11">
          <mxGeometry y="118" width="160" height="26" as="geometry" />
        </mxCell>
        <mxCell id="0s136Buh3HI4MueRSp4b-15" value="Extends" style="endArrow=block;endSize=16;endFill=0;html=1;rounded=0;" edge="1" parent="1" source="0s136Buh3HI4MueRSp4b-11" target="0s136Buh3HI4MueRSp4b-7">
          <mxGeometry width="160" relative="1" as="geometry">
            <mxPoint x="560" y="340" as="sourcePoint" />
            <mxPoint x="720" y="340" as="targetPoint" />
          </mxGeometry>
        </mxCell>
        <mxCell id="0s136Buh3HI4MueRSp4b-30" value="&lt;div&gt;&lt;i style=&quot;font-weight: normal;&quot;&gt;&amp;lt;&amp;lt;interface&amp;gt;&amp;gt;&lt;/i&gt;&lt;/div&gt;&lt;i&gt;IShape&lt;/i&gt;" style="swimlane;fontStyle=1;align=center;verticalAlign=top;childLayout=stackLayout;horizontal=1;startSize=40;horizontalStack=0;resizeParent=1;resizeParentMax=0;resizeLast=0;collapsible=1;marginBottom=0;whiteSpace=wrap;html=1;" vertex="1" parent="1">
          <mxGeometry x="460" y="640" width="160" height="118" as="geometry" />
        </mxCell>
        <mxCell id="0s136Buh3HI4MueRSp4b-43" value="&lt;i&gt;+GetColor(): Color&lt;/i&gt;" style="text;strokeColor=none;fillColor=none;align=left;verticalAlign=top;spacingLeft=4;spacingRight=4;overflow=hidden;rotatable=0;points=[[0,0.5],[1,0.5]];portConstraint=eastwest;whiteSpace=wrap;html=1;" vertex="1" parent="0s136Buh3HI4MueRSp4b-30">
          <mxGeometry y="40" width="160" height="26" as="geometry" />
        </mxCell>
        <mxCell id="0s136Buh3HI4MueRSp4b-44" value="&lt;i&gt;+SetColor(c: Color)&lt;/i&gt;" style="text;strokeColor=none;fillColor=none;align=left;verticalAlign=top;spacingLeft=4;spacingRight=4;overflow=hidden;rotatable=0;points=[[0,0.5],[1,0.5]];portConstraint=eastwest;whiteSpace=wrap;html=1;" vertex="1" parent="0s136Buh3HI4MueRSp4b-30">
          <mxGeometry y="66" width="160" height="26" as="geometry" />
        </mxCell>
        <mxCell id="0s136Buh3HI4MueRSp4b-45" value="&lt;i&gt;+GetArea(): double&lt;/i&gt;" style="text;strokeColor=none;fillColor=none;align=left;verticalAlign=top;spacingLeft=4;spacingRight=4;overflow=hidden;rotatable=0;points=[[0,0.5],[1,0.5]];portConstraint=eastwest;whiteSpace=wrap;html=1;" vertex="1" parent="0s136Buh3HI4MueRSp4b-30">
          <mxGeometry y="92" width="160" height="26" as="geometry" />
        </mxCell>
        <mxCell id="0s136Buh3HI4MueRSp4b-34" value="&lt;div&gt;&lt;span style=&quot;font-weight: normal;&quot;&gt;&amp;lt;&amp;lt;interface&amp;gt;&amp;gt;&lt;/span&gt;&lt;/div&gt;IRectangle" style="swimlane;fontStyle=3;align=center;verticalAlign=top;childLayout=stackLayout;horizontal=1;startSize=40;horizontalStack=0;resizeParent=1;resizeParentMax=0;resizeLast=0;collapsible=1;marginBottom=0;whiteSpace=wrap;html=1;" vertex="1" parent="1">
          <mxGeometry x="360" y="840" width="160" height="66" as="geometry" />
        </mxCell>
        <mxCell id="0s136Buh3HI4MueRSp4b-46" value="..." style="text;strokeColor=none;fillColor=none;align=left;verticalAlign=top;spacingLeft=4;spacingRight=4;overflow=hidden;rotatable=0;points=[[0,0.5],[1,0.5]];portConstraint=eastwest;whiteSpace=wrap;html=1;" vertex="1" parent="0s136Buh3HI4MueRSp4b-34">
          <mxGeometry y="40" width="160" height="26" as="geometry" />
        </mxCell>
        <mxCell id="0s136Buh3HI4MueRSp4b-35" value="&lt;div&gt;&lt;span style=&quot;font-weight: normal;&quot;&gt;&amp;lt;&amp;lt;interface&amp;gt;&amp;gt;&lt;/span&gt;&lt;/div&gt;ICircle" style="swimlane;fontStyle=3;align=center;verticalAlign=top;childLayout=stackLayout;horizontal=1;startSize=40;horizontalStack=0;resizeParent=1;resizeParentMax=0;resizeLast=0;collapsible=1;marginBottom=0;whiteSpace=wrap;html=1;" vertex="1" parent="1">
          <mxGeometry x="560" y="840" width="160" height="66" as="geometry" />
        </mxCell>
        <mxCell id="0s136Buh3HI4MueRSp4b-47" value="..." style="text;strokeColor=none;fillColor=none;align=left;verticalAlign=top;spacingLeft=4;spacingRight=4;overflow=hidden;rotatable=0;points=[[0,0.5],[1,0.5]];portConstraint=eastwest;whiteSpace=wrap;html=1;" vertex="1" parent="0s136Buh3HI4MueRSp4b-35">
          <mxGeometry y="40" width="160" height="26" as="geometry" />
        </mxCell>
        <mxCell id="0s136Buh3HI4MueRSp4b-37" value="Extends" style="endArrow=block;endSize=16;endFill=0;html=1;rounded=0;" edge="1" parent="1" source="0s136Buh3HI4MueRSp4b-34" target="0s136Buh3HI4MueRSp4b-30">
          <mxGeometry width="160" relative="1" as="geometry">
            <mxPoint x="440" y="800" as="sourcePoint" />
            <mxPoint x="600" y="800" as="targetPoint" />
          </mxGeometry>
        </mxCell>
        <mxCell id="0s136Buh3HI4MueRSp4b-38" value="Extends" style="endArrow=block;endSize=16;endFill=0;html=1;rounded=0;" edge="1" parent="1" source="0s136Buh3HI4MueRSp4b-35" target="0s136Buh3HI4MueRSp4b-30">
          <mxGeometry width="160" relative="1" as="geometry">
            <mxPoint x="476" y="850" as="sourcePoint" />
            <mxPoint x="544" y="782" as="targetPoint" />
          </mxGeometry>
        </mxCell>
        <mxCell id="0s136Buh3HI4MueRSp4b-39" value="Rectangle" style="swimlane;fontStyle=1;align=center;verticalAlign=top;childLayout=stackLayout;horizontal=1;startSize=26;horizontalStack=0;resizeParent=1;resizeParentMax=0;resizeLast=0;collapsible=1;marginBottom=0;whiteSpace=wrap;html=1;" vertex="1" parent="1">
          <mxGeometry x="360" y="980" width="160" height="52" as="geometry" />
        </mxCell>
        <mxCell id="0s136Buh3HI4MueRSp4b-48" value="..." style="text;strokeColor=none;fillColor=none;align=left;verticalAlign=top;spacingLeft=4;spacingRight=4;overflow=hidden;rotatable=0;points=[[0,0.5],[1,0.5]];portConstraint=eastwest;whiteSpace=wrap;html=1;" vertex="1" parent="0s136Buh3HI4MueRSp4b-39">
          <mxGeometry y="26" width="160" height="26" as="geometry" />
        </mxCell>
        <mxCell id="0s136Buh3HI4MueRSp4b-40" value="Circle" style="swimlane;fontStyle=1;align=center;verticalAlign=top;childLayout=stackLayout;horizontal=1;startSize=26;horizontalStack=0;resizeParent=1;resizeParentMax=0;resizeLast=0;collapsible=1;marginBottom=0;whiteSpace=wrap;html=1;" vertex="1" parent="1">
          <mxGeometry x="560" y="980" width="160" height="52" as="geometry" />
        </mxCell>
        <mxCell id="0s136Buh3HI4MueRSp4b-49" value="..." style="text;strokeColor=none;fillColor=none;align=left;verticalAlign=top;spacingLeft=4;spacingRight=4;overflow=hidden;rotatable=0;points=[[0,0.5],[1,0.5]];portConstraint=eastwest;whiteSpace=wrap;html=1;" vertex="1" parent="0s136Buh3HI4MueRSp4b-40">
          <mxGeometry y="26" width="160" height="26" as="geometry" />
        </mxCell>
        <mxCell id="0s136Buh3HI4MueRSp4b-41" value="" style="endArrow=block;dashed=1;endFill=0;endSize=12;html=1;rounded=0;" edge="1" parent="1" source="0s136Buh3HI4MueRSp4b-39" target="0s136Buh3HI4MueRSp4b-34">
          <mxGeometry width="160" relative="1" as="geometry">
            <mxPoint x="160" y="930" as="sourcePoint" />
            <mxPoint x="320" y="930" as="targetPoint" />
          </mxGeometry>
        </mxCell>
        <mxCell id="0s136Buh3HI4MueRSp4b-42" value="" style="endArrow=block;dashed=1;endFill=0;endSize=12;html=1;rounded=0;" edge="1" parent="1" source="0s136Buh3HI4MueRSp4b-40" target="0s136Buh3HI4MueRSp4b-35">
          <mxGeometry width="160" relative="1" as="geometry">
            <mxPoint x="450" y="1000" as="sourcePoint" />
            <mxPoint x="450" y="920" as="targetPoint" />
          </mxGeometry>
        </mxCell>
        <mxCell id="0s136Buh3HI4MueRSp4b-50" value="&lt;div&gt;&lt;i style=&quot;font-weight: normal;&quot;&gt;&amp;lt;&amp;lt;interface&amp;gt;&amp;gt;&lt;/i&gt;&lt;/div&gt;&lt;i&gt;IShape&lt;/i&gt;" style="swimlane;fontStyle=1;align=center;verticalAlign=top;childLayout=stackLayout;horizontal=1;startSize=40;horizontalStack=0;resizeParent=1;resizeParentMax=0;resizeLast=0;collapsible=1;marginBottom=0;whiteSpace=wrap;html=1;" vertex="1" parent="1">
          <mxGeometry x="1020" y="660" width="160" height="118" as="geometry" />
        </mxCell>
        <mxCell id="0s136Buh3HI4MueRSp4b-51" value="&lt;i&gt;+GetColor(): Color&lt;/i&gt;" style="text;strokeColor=none;fillColor=none;align=left;verticalAlign=top;spacingLeft=4;spacingRight=4;overflow=hidden;rotatable=0;points=[[0,0.5],[1,0.5]];portConstraint=eastwest;whiteSpace=wrap;html=1;" vertex="1" parent="0s136Buh3HI4MueRSp4b-50">
          <mxGeometry y="40" width="160" height="26" as="geometry" />
        </mxCell>
        <mxCell id="0s136Buh3HI4MueRSp4b-52" value="&lt;i&gt;+SetColor(c: Color)&lt;/i&gt;" style="text;strokeColor=none;fillColor=none;align=left;verticalAlign=top;spacingLeft=4;spacingRight=4;overflow=hidden;rotatable=0;points=[[0,0.5],[1,0.5]];portConstraint=eastwest;whiteSpace=wrap;html=1;" vertex="1" parent="0s136Buh3HI4MueRSp4b-50">
          <mxGeometry y="66" width="160" height="26" as="geometry" />
        </mxCell>
        <mxCell id="0s136Buh3HI4MueRSp4b-53" value="&lt;i&gt;+GetArea(): double&lt;/i&gt;" style="text;strokeColor=none;fillColor=none;align=left;verticalAlign=top;spacingLeft=4;spacingRight=4;overflow=hidden;rotatable=0;points=[[0,0.5],[1,0.5]];portConstraint=eastwest;whiteSpace=wrap;html=1;" vertex="1" parent="0s136Buh3HI4MueRSp4b-50">
          <mxGeometry y="92" width="160" height="26" as="geometry" />
        </mxCell>
        <mxCell id="0s136Buh3HI4MueRSp4b-54" value="&lt;div&gt;&lt;span style=&quot;font-weight: normal;&quot;&gt;&amp;lt;&amp;lt;interface&amp;gt;&amp;gt;&lt;/span&gt;&lt;/div&gt;IRectangle" style="swimlane;fontStyle=3;align=center;verticalAlign=top;childLayout=stackLayout;horizontal=1;startSize=40;horizontalStack=0;resizeParent=1;resizeParentMax=0;resizeLast=0;collapsible=1;marginBottom=0;whiteSpace=wrap;html=1;" vertex="1" parent="1">
          <mxGeometry x="920" y="840" width="160" height="66" as="geometry" />
        </mxCell>
        <mxCell id="0s136Buh3HI4MueRSp4b-55" value="..." style="text;strokeColor=none;fillColor=none;align=left;verticalAlign=top;spacingLeft=4;spacingRight=4;overflow=hidden;rotatable=0;points=[[0,0.5],[1,0.5]];portConstraint=eastwest;whiteSpace=wrap;html=1;" vertex="1" parent="0s136Buh3HI4MueRSp4b-54">
          <mxGeometry y="40" width="160" height="26" as="geometry" />
        </mxCell>
        <mxCell id="0s136Buh3HI4MueRSp4b-56" value="&lt;div&gt;&lt;span style=&quot;font-weight: normal;&quot;&gt;&amp;lt;&amp;lt;interface&amp;gt;&amp;gt;&lt;/span&gt;&lt;/div&gt;ICircle" style="swimlane;fontStyle=3;align=center;verticalAlign=top;childLayout=stackLayout;horizontal=1;startSize=40;horizontalStack=0;resizeParent=1;resizeParentMax=0;resizeLast=0;collapsible=1;marginBottom=0;whiteSpace=wrap;html=1;" vertex="1" parent="1">
          <mxGeometry x="1120" y="840" width="160" height="66" as="geometry" />
        </mxCell>
        <mxCell id="0s136Buh3HI4MueRSp4b-57" value="..." style="text;strokeColor=none;fillColor=none;align=left;verticalAlign=top;spacingLeft=4;spacingRight=4;overflow=hidden;rotatable=0;points=[[0,0.5],[1,0.5]];portConstraint=eastwest;whiteSpace=wrap;html=1;" vertex="1" parent="0s136Buh3HI4MueRSp4b-56">
          <mxGeometry y="40" width="160" height="26" as="geometry" />
        </mxCell>
        <mxCell id="0s136Buh3HI4MueRSp4b-58" value="" style="endArrow=block;endSize=16;endFill=0;html=1;rounded=0;" edge="1" source="0s136Buh3HI4MueRSp4b-54" target="0s136Buh3HI4MueRSp4b-50" parent="1">
          <mxGeometry width="160" relative="1" as="geometry">
            <mxPoint x="1000" y="800" as="sourcePoint" />
            <mxPoint x="1160" y="800" as="targetPoint" />
          </mxGeometry>
        </mxCell>
        <mxCell id="0s136Buh3HI4MueRSp4b-59" value="" style="endArrow=block;endSize=16;endFill=0;html=1;rounded=0;" edge="1" source="0s136Buh3HI4MueRSp4b-56" target="0s136Buh3HI4MueRSp4b-50" parent="1">
          <mxGeometry width="160" relative="1" as="geometry">
            <mxPoint x="1036" y="850" as="sourcePoint" />
            <mxPoint x="1104" y="782" as="targetPoint" />
          </mxGeometry>
        </mxCell>
        <mxCell id="0s136Buh3HI4MueRSp4b-60" value="ShapeImpl&amp;lt;Rectangle&amp;gt;" style="swimlane;fontStyle=1;align=center;verticalAlign=top;childLayout=stackLayout;horizontal=1;startSize=26;horizontalStack=0;resizeParent=1;resizeParentMax=0;resizeLast=0;collapsible=1;marginBottom=0;whiteSpace=wrap;html=1;" vertex="1" parent="1">
          <mxGeometry x="920" y="960" width="160" height="52" as="geometry" />
        </mxCell>
        <mxCell id="0s136Buh3HI4MueRSp4b-61" value="..." style="text;strokeColor=none;fillColor=none;align=left;verticalAlign=top;spacingLeft=4;spacingRight=4;overflow=hidden;rotatable=0;points=[[0,0.5],[1,0.5]];portConstraint=eastwest;whiteSpace=wrap;html=1;" vertex="1" parent="0s136Buh3HI4MueRSp4b-60">
          <mxGeometry y="26" width="160" height="26" as="geometry" />
        </mxCell>
        <mxCell id="0s136Buh3HI4MueRSp4b-62" value="ShapeImpl&amp;lt;ICircle&amp;gt;" style="swimlane;fontStyle=3;align=center;verticalAlign=top;childLayout=stackLayout;horizontal=1;startSize=26;horizontalStack=0;resizeParent=1;resizeParentMax=0;resizeLast=0;collapsible=1;marginBottom=0;whiteSpace=wrap;html=1;" vertex="1" parent="1">
          <mxGeometry x="1120" y="960" width="160" height="52" as="geometry" />
        </mxCell>
        <mxCell id="0s136Buh3HI4MueRSp4b-63" value="..." style="text;strokeColor=none;fillColor=none;align=left;verticalAlign=top;spacingLeft=4;spacingRight=4;overflow=hidden;rotatable=0;points=[[0,0.5],[1,0.5]];portConstraint=eastwest;whiteSpace=wrap;html=1;" vertex="1" parent="0s136Buh3HI4MueRSp4b-62">
          <mxGeometry y="26" width="160" height="26" as="geometry" />
        </mxCell>
        <mxCell id="0s136Buh3HI4MueRSp4b-64" value="" style="endArrow=block;dashed=1;endFill=0;endSize=12;html=1;rounded=0;" edge="1" source="0s136Buh3HI4MueRSp4b-60" target="0s136Buh3HI4MueRSp4b-54" parent="1">
          <mxGeometry width="160" relative="1" as="geometry">
            <mxPoint x="720" y="930" as="sourcePoint" />
            <mxPoint x="880" y="930" as="targetPoint" />
          </mxGeometry>
        </mxCell>
        <mxCell id="0s136Buh3HI4MueRSp4b-65" value="" style="endArrow=block;dashed=1;endFill=0;endSize=12;html=1;rounded=0;" edge="1" source="0s136Buh3HI4MueRSp4b-62" target="0s136Buh3HI4MueRSp4b-56" parent="1">
          <mxGeometry width="160" relative="1" as="geometry">
            <mxPoint x="1010" y="1000" as="sourcePoint" />
            <mxPoint x="1010" y="920" as="targetPoint" />
          </mxGeometry>
        </mxCell>
        <mxCell id="0s136Buh3HI4MueRSp4b-66" value="&lt;div&gt;template &amp;lt;typename Base&amp;gt;&lt;/div&gt;ShapeImpl&amp;lt;Base&amp;gt;" style="swimlane;fontStyle=1;align=center;verticalAlign=top;childLayout=stackLayout;horizontal=1;startSize=38;horizontalStack=0;resizeParent=1;resizeParentMax=0;resizeLast=0;collapsible=1;marginBottom=0;whiteSpace=wrap;html=1;" vertex="1" parent="1">
          <mxGeometry x="1320" y="758" width="180" height="90" as="geometry" />
        </mxCell>
        <mxCell id="0s136Buh3HI4MueRSp4b-70" value="&lt;span&gt;+GetColor(): Color&lt;/span&gt;" style="text;strokeColor=none;fillColor=none;align=left;verticalAlign=top;spacingLeft=4;spacingRight=4;overflow=hidden;rotatable=0;points=[[0,0.5],[1,0.5]];portConstraint=eastwest;whiteSpace=wrap;html=1;fontStyle=0" vertex="1" parent="0s136Buh3HI4MueRSp4b-66">
          <mxGeometry y="38" width="180" height="26" as="geometry" />
        </mxCell>
        <mxCell id="0s136Buh3HI4MueRSp4b-71" value="&lt;span&gt;+SetColor(c: Color)&lt;/span&gt;" style="text;strokeColor=none;fillColor=none;align=left;verticalAlign=top;spacingLeft=4;spacingRight=4;overflow=hidden;rotatable=0;points=[[0,0.5],[1,0.5]];portConstraint=eastwest;whiteSpace=wrap;html=1;fontStyle=0" vertex="1" parent="0s136Buh3HI4MueRSp4b-66">
          <mxGeometry y="64" width="180" height="26" as="geometry" />
        </mxCell>
        <mxCell id="0s136Buh3HI4MueRSp4b-72" value="Base" style="swimlane;fontStyle=1;align=center;verticalAlign=top;childLayout=stackLayout;horizontal=1;startSize=26;horizontalStack=0;resizeParent=1;resizeParentMax=0;resizeLast=0;collapsible=1;marginBottom=0;whiteSpace=wrap;html=1;" vertex="1" parent="1">
          <mxGeometry x="1320" y="660" width="180" height="52" as="geometry" />
        </mxCell>
        <mxCell id="0s136Buh3HI4MueRSp4b-75" value="" style="endArrow=block;dashed=1;endFill=0;endSize=12;html=1;rounded=0;" edge="1" parent="1" source="0s136Buh3HI4MueRSp4b-66" target="0s136Buh3HI4MueRSp4b-72">
          <mxGeometry width="160" relative="1" as="geometry">
            <mxPoint x="1330" y="810" as="sourcePoint" />
            <mxPoint x="1490" y="810" as="targetPoint" />
          </mxGeometry>
        </mxCell>
        <mxCell id="0s136Buh3HI4MueRSp4b-76" value="Circle" style="swimlane;fontStyle=1;align=center;verticalAlign=top;childLayout=stackLayout;horizontal=1;startSize=26;horizontalStack=0;resizeParent=1;resizeParentMax=0;resizeLast=0;collapsible=1;marginBottom=0;whiteSpace=wrap;html=1;" vertex="1" parent="1">
          <mxGeometry x="1120" y="1070" width="160" height="52" as="geometry" />
        </mxCell>
        <mxCell id="0s136Buh3HI4MueRSp4b-77" value="+GetArea(): double" style="text;strokeColor=none;fillColor=none;align=left;verticalAlign=top;spacingLeft=4;spacingRight=4;overflow=hidden;rotatable=0;points=[[0,0.5],[1,0.5]];portConstraint=eastwest;whiteSpace=wrap;html=1;" vertex="1" parent="0s136Buh3HI4MueRSp4b-76">
          <mxGeometry y="26" width="160" height="26" as="geometry" />
        </mxCell>
        <mxCell id="0s136Buh3HI4MueRSp4b-78" value="" style="endArrow=block;endSize=16;endFill=0;html=1;rounded=0;" edge="1" parent="1" source="0s136Buh3HI4MueRSp4b-76" target="0s136Buh3HI4MueRSp4b-62">
          <mxGeometry width="160" relative="1" as="geometry">
            <mxPoint x="1200" y="1040" as="sourcePoint" />
            <mxPoint x="1360" y="1040" as="targetPoint" />
          </mxGeometry>
        </mxCell>
        <mxCell id="0s136Buh3HI4MueRSp4b-79" value="Circle" style="swimlane;fontStyle=1;align=center;verticalAlign=top;childLayout=stackLayout;horizontal=1;startSize=26;horizontalStack=0;resizeParent=1;resizeParentMax=0;resizeLast=0;collapsible=1;marginBottom=0;whiteSpace=wrap;html=1;" vertex="1" parent="1">
          <mxGeometry x="920" y="1070" width="160" height="52" as="geometry" />
        </mxCell>
        <mxCell id="0s136Buh3HI4MueRSp4b-82" value="+GetArea(): double" style="text;strokeColor=none;fillColor=none;align=left;verticalAlign=top;spacingLeft=4;spacingRight=4;overflow=hidden;rotatable=0;points=[[0,0.5],[1,0.5]];portConstraint=eastwest;whiteSpace=wrap;html=1;" vertex="1" parent="0s136Buh3HI4MueRSp4b-79">
          <mxGeometry y="26" width="160" height="26" as="geometry" />
        </mxCell>
        <mxCell id="0s136Buh3HI4MueRSp4b-81" value="" style="endArrow=block;endSize=16;endFill=0;html=1;rounded=0;" edge="1" parent="1" source="0s136Buh3HI4MueRSp4b-79" target="0s136Buh3HI4MueRSp4b-60">
          <mxGeometry width="160" relative="1" as="geometry">
            <mxPoint x="1210" y="1080" as="sourcePoint" />
            <mxPoint x="1210" y="1022" as="targetPoint" />
          </mxGeometry>
        </mxCell>
        <mxCell id="0s136Buh3HI4MueRSp4b-83" value="&lt;div&gt;&lt;i style=&quot;font-weight: normal;&quot;&gt;&amp;lt;&amp;lt;interface&amp;gt;&amp;gt;&lt;/i&gt;&lt;/div&gt;&lt;i&gt;IShape&lt;/i&gt;" style="swimlane;fontStyle=1;align=center;verticalAlign=top;childLayout=stackLayout;horizontal=1;startSize=40;horizontalStack=0;resizeParent=1;resizeParentMax=0;resizeLast=0;collapsible=1;marginBottom=0;whiteSpace=wrap;html=1;" vertex="1" parent="1">
          <mxGeometry x="520" y="1170" width="160" height="118" as="geometry" />
        </mxCell>
        <mxCell id="0s136Buh3HI4MueRSp4b-84" value="&lt;i&gt;+GetColor(): Color&lt;/i&gt;" style="text;strokeColor=none;fillColor=none;align=left;verticalAlign=top;spacingLeft=4;spacingRight=4;overflow=hidden;rotatable=0;points=[[0,0.5],[1,0.5]];portConstraint=eastwest;whiteSpace=wrap;html=1;" vertex="1" parent="0s136Buh3HI4MueRSp4b-83">
          <mxGeometry y="40" width="160" height="26" as="geometry" />
        </mxCell>
        <mxCell id="0s136Buh3HI4MueRSp4b-85" value="&lt;i&gt;+SetColor(c: Color)&lt;/i&gt;" style="text;strokeColor=none;fillColor=none;align=left;verticalAlign=top;spacingLeft=4;spacingRight=4;overflow=hidden;rotatable=0;points=[[0,0.5],[1,0.5]];portConstraint=eastwest;whiteSpace=wrap;html=1;" vertex="1" parent="0s136Buh3HI4MueRSp4b-83">
          <mxGeometry y="66" width="160" height="26" as="geometry" />
        </mxCell>
        <mxCell id="0s136Buh3HI4MueRSp4b-86" value="&lt;i&gt;+GetArea(): double&lt;/i&gt;" style="text;strokeColor=none;fillColor=none;align=left;verticalAlign=top;spacingLeft=4;spacingRight=4;overflow=hidden;rotatable=0;points=[[0,0.5],[1,0.5]];portConstraint=eastwest;whiteSpace=wrap;html=1;" vertex="1" parent="0s136Buh3HI4MueRSp4b-83">
          <mxGeometry y="92" width="160" height="26" as="geometry" />
        </mxCell>
        <mxCell id="0s136Buh3HI4MueRSp4b-87" value="&lt;div&gt;&lt;span style=&quot;font-weight: normal;&quot;&gt;&amp;lt;&amp;lt;interface&amp;gt;&amp;gt;&lt;/span&gt;&lt;/div&gt;IRectangle" style="swimlane;fontStyle=3;align=center;verticalAlign=top;childLayout=stackLayout;horizontal=1;startSize=40;horizontalStack=0;resizeParent=1;resizeParentMax=0;resizeLast=0;collapsible=1;marginBottom=0;whiteSpace=wrap;html=1;" vertex="1" parent="1">
          <mxGeometry x="340" y="1360" width="160" height="66" as="geometry" />
        </mxCell>
        <mxCell id="0s136Buh3HI4MueRSp4b-88" value="..." style="text;strokeColor=none;fillColor=none;align=left;verticalAlign=top;spacingLeft=4;spacingRight=4;overflow=hidden;rotatable=0;points=[[0,0.5],[1,0.5]];portConstraint=eastwest;whiteSpace=wrap;html=1;" vertex="1" parent="0s136Buh3HI4MueRSp4b-87">
          <mxGeometry y="40" width="160" height="26" as="geometry" />
        </mxCell>
        <mxCell id="0s136Buh3HI4MueRSp4b-89" value="&lt;div&gt;&lt;span style=&quot;font-weight: normal;&quot;&gt;&amp;lt;&amp;lt;interface&amp;gt;&amp;gt;&lt;/span&gt;&lt;/div&gt;ICircle" style="swimlane;fontStyle=3;align=center;verticalAlign=top;childLayout=stackLayout;horizontal=1;startSize=40;horizontalStack=0;resizeParent=1;resizeParentMax=0;resizeLast=0;collapsible=1;marginBottom=0;whiteSpace=wrap;html=1;" vertex="1" parent="1">
          <mxGeometry x="700" y="1360" width="160" height="66" as="geometry" />
        </mxCell>
        <mxCell id="0s136Buh3HI4MueRSp4b-90" value="..." style="text;strokeColor=none;fillColor=none;align=left;verticalAlign=top;spacingLeft=4;spacingRight=4;overflow=hidden;rotatable=0;points=[[0,0.5],[1,0.5]];portConstraint=eastwest;whiteSpace=wrap;html=1;" vertex="1" parent="0s136Buh3HI4MueRSp4b-89">
          <mxGeometry y="40" width="160" height="26" as="geometry" />
        </mxCell>
        <mxCell id="0s136Buh3HI4MueRSp4b-91" value="" style="endArrow=block;endSize=16;endFill=0;html=1;rounded=0;" edge="1" source="0s136Buh3HI4MueRSp4b-87" target="0s136Buh3HI4MueRSp4b-83" parent="1">
          <mxGeometry width="160" relative="1" as="geometry">
            <mxPoint x="420" y="1320" as="sourcePoint" />
            <mxPoint x="580" y="1320" as="targetPoint" />
          </mxGeometry>
        </mxCell>
        <mxCell id="0s136Buh3HI4MueRSp4b-92" value="" style="endArrow=block;endSize=16;endFill=0;html=1;rounded=0;" edge="1" source="0s136Buh3HI4MueRSp4b-89" target="0s136Buh3HI4MueRSp4b-83" parent="1">
          <mxGeometry width="160" relative="1" as="geometry">
            <mxPoint x="456" y="1370" as="sourcePoint" />
            <mxPoint x="524" y="1302" as="targetPoint" />
          </mxGeometry>
        </mxCell>
        <mxCell id="0s136Buh3HI4MueRSp4b-93" value="Rectangle" style="swimlane;fontStyle=1;align=center;verticalAlign=top;childLayout=stackLayout;horizontal=1;startSize=26;horizontalStack=0;resizeParent=1;resizeParentMax=0;resizeLast=0;collapsible=1;marginBottom=0;whiteSpace=wrap;html=1;" vertex="1" parent="1">
          <mxGeometry x="425" y="1520" width="160" height="52" as="geometry" />
        </mxCell>
        <mxCell id="0s136Buh3HI4MueRSp4b-94" value="..." style="text;strokeColor=none;fillColor=none;align=left;verticalAlign=top;spacingLeft=4;spacingRight=4;overflow=hidden;rotatable=0;points=[[0,0.5],[1,0.5]];portConstraint=eastwest;whiteSpace=wrap;html=1;" vertex="1" parent="0s136Buh3HI4MueRSp4b-93">
          <mxGeometry y="26" width="160" height="26" as="geometry" />
        </mxCell>
        <mxCell id="0s136Buh3HI4MueRSp4b-95" value="Circle" style="swimlane;fontStyle=1;align=center;verticalAlign=top;childLayout=stackLayout;horizontal=1;startSize=26;horizontalStack=0;resizeParent=1;resizeParentMax=0;resizeLast=0;collapsible=1;marginBottom=0;whiteSpace=wrap;html=1;" vertex="1" parent="1">
          <mxGeometry x="620" y="1520" width="160" height="52" as="geometry" />
        </mxCell>
        <mxCell id="0s136Buh3HI4MueRSp4b-96" value="..." style="text;strokeColor=none;fillColor=none;align=left;verticalAlign=top;spacingLeft=4;spacingRight=4;overflow=hidden;rotatable=0;points=[[0,0.5],[1,0.5]];portConstraint=eastwest;whiteSpace=wrap;html=1;" vertex="1" parent="0s136Buh3HI4MueRSp4b-95">
          <mxGeometry y="26" width="160" height="26" as="geometry" />
        </mxCell>
        <mxCell id="0s136Buh3HI4MueRSp4b-97" value="" style="endArrow=block;dashed=1;endFill=0;endSize=12;html=1;rounded=0;" edge="1" source="0s136Buh3HI4MueRSp4b-93" target="0s136Buh3HI4MueRSp4b-87" parent="1">
          <mxGeometry width="160" relative="1" as="geometry">
            <mxPoint x="140" y="1450" as="sourcePoint" />
            <mxPoint x="300" y="1450" as="targetPoint" />
          </mxGeometry>
        </mxCell>
        <mxCell id="0s136Buh3HI4MueRSp4b-98" value="" style="endArrow=block;dashed=1;endFill=0;endSize=12;html=1;rounded=0;" edge="1" source="0s136Buh3HI4MueRSp4b-95" target="0s136Buh3HI4MueRSp4b-89" parent="1">
          <mxGeometry width="160" relative="1" as="geometry">
            <mxPoint x="430" y="1520" as="sourcePoint" />
            <mxPoint x="430" y="1440" as="targetPoint" />
          </mxGeometry>
        </mxCell>
        <mxCell id="0s136Buh3HI4MueRSp4b-99" value="Shape" style="swimlane;fontStyle=1;align=center;verticalAlign=top;childLayout=stackLayout;horizontal=1;startSize=26;horizontalStack=0;resizeParent=1;resizeParentMax=0;resizeLast=0;collapsible=1;marginBottom=0;whiteSpace=wrap;html=1;" vertex="1" parent="1">
          <mxGeometry x="520" y="1360" width="160" height="78" as="geometry" />
        </mxCell>
        <mxCell id="0s136Buh3HI4MueRSp4b-102" value="&lt;span&gt;+SetColor(c: Color)&lt;/span&gt;" style="text;strokeColor=none;fillColor=none;align=left;verticalAlign=top;spacingLeft=4;spacingRight=4;overflow=hidden;rotatable=0;points=[[0,0.5],[1,0.5]];portConstraint=eastwest;whiteSpace=wrap;html=1;fontStyle=0" vertex="1" parent="0s136Buh3HI4MueRSp4b-99">
          <mxGeometry y="26" width="160" height="26" as="geometry" />
        </mxCell>
        <mxCell id="0s136Buh3HI4MueRSp4b-101" value="&lt;span&gt;+GetColor(): Color&lt;/span&gt;" style="text;strokeColor=none;fillColor=none;align=left;verticalAlign=top;spacingLeft=4;spacingRight=4;overflow=hidden;rotatable=0;points=[[0,0.5],[1,0.5]];portConstraint=eastwest;whiteSpace=wrap;html=1;fontStyle=0" vertex="1" parent="0s136Buh3HI4MueRSp4b-99">
          <mxGeometry y="52" width="160" height="26" as="geometry" />
        </mxCell>
        <mxCell id="0s136Buh3HI4MueRSp4b-103" value="" style="endArrow=block;endSize=16;endFill=0;html=1;rounded=0;" edge="1" parent="1" source="0s136Buh3HI4MueRSp4b-93" target="0s136Buh3HI4MueRSp4b-99">
          <mxGeometry width="160" relative="1" as="geometry">
            <mxPoint x="530" y="1500" as="sourcePoint" />
            <mxPoint x="690" y="1500" as="targetPoint" />
          </mxGeometry>
        </mxCell>
        <mxCell id="0s136Buh3HI4MueRSp4b-104" value="" style="endArrow=block;endSize=16;endFill=0;html=1;rounded=0;" edge="1" parent="1" source="0s136Buh3HI4MueRSp4b-95" target="0s136Buh3HI4MueRSp4b-99">
          <mxGeometry width="160" relative="1" as="geometry">
            <mxPoint x="530" y="1500" as="sourcePoint" />
            <mxPoint x="690" y="1500" as="targetPoint" />
          </mxGeometry>
        </mxCell>
        <mxCell id="0s136Buh3HI4MueRSp4b-105" value="" style="endArrow=block;dashed=1;endFill=0;endSize=12;html=1;rounded=0;" edge="1" parent="1" source="0s136Buh3HI4MueRSp4b-99" target="0s136Buh3HI4MueRSp4b-83">
          <mxGeometry width="160" relative="1" as="geometry">
            <mxPoint x="550" y="1320" as="sourcePoint" />
            <mxPoint x="710" y="1320" as="targetPoint" />
          </mxGeometry>
        </mxCell>
      </root>
    </mxGraphModel>
  </diagram>
</mxfile>
